<mxfile host="app.diagrams.net" modified="2022-04-12T16:50:05.769Z" agent="5.0 (Windows)" etag="wWZYw9rqUo6EMi_F9--s" version="17.4.3" type="github">
  <diagram id="a25Awu7tsZ9atOyCglpS" name="Page-1">
    <mxGraphModel dx="1578" dy="836" grid="1" gridSize="10" guides="1" tooltips="1" connect="1" arrows="1" fold="1" page="1" pageScale="1" pageWidth="827" pageHeight="1169" math="0" shadow="0">
      <root>
        <mxCell id="0" />
        <mxCell id="1" parent="0" />
        <mxCell id="zopsyx_U3Knj8r7YK4rU-1" value="Início" style="rounded=1;whiteSpace=wrap;html=1;" vertex="1" parent="1">
          <mxGeometry x="130" y="80" width="80" height="40" as="geometry" />
        </mxCell>
        <mxCell id="zopsyx_U3Knj8r7YK4rU-2" value="&lt;div&gt;Perguntar ano&lt;/div&gt;&lt;div&gt;de nascimento&lt;/div&gt;" style="shape=parallelogram;perimeter=parallelogramPerimeter;whiteSpace=wrap;html=1;fixedSize=1;" vertex="1" parent="1">
          <mxGeometry x="270" y="70" width="120" height="60" as="geometry" />
        </mxCell>
        <mxCell id="zopsyx_U3Knj8r7YK4rU-3" value="&lt;div&gt;Perguntar ano&lt;/div&gt;&lt;div&gt;atual&lt;br&gt;&lt;/div&gt;" style="shape=parallelogram;perimeter=parallelogramPerimeter;whiteSpace=wrap;html=1;fixedSize=1;" vertex="1" parent="1">
          <mxGeometry x="450" y="70" width="120" height="60" as="geometry" />
        </mxCell>
        <mxCell id="zopsyx_U3Knj8r7YK4rU-5" value="Calcular: ano atual - ano de nascimento = idade atual" style="rounded=0;whiteSpace=wrap;html=1;" vertex="1" parent="1">
          <mxGeometry x="455" y="360" width="120" height="60" as="geometry" />
        </mxCell>
        <mxCell id="zopsyx_U3Knj8r7YK4rU-6" value="Ano atual &amp;gt; Ano nascimento" style="rhombus;whiteSpace=wrap;html=1;" vertex="1" parent="1">
          <mxGeometry x="450" y="190" width="130" height="120" as="geometry" />
        </mxCell>
        <mxCell id="zopsyx_U3Knj8r7YK4rU-7" value="Resultado: apresentar a idade atual" style="shape=document;whiteSpace=wrap;html=1;boundedLbl=1;" vertex="1" parent="1">
          <mxGeometry x="455" y="480" width="120" height="80" as="geometry" />
        </mxCell>
        <mxCell id="zopsyx_U3Knj8r7YK4rU-8" value="Fim" style="rounded=1;whiteSpace=wrap;html=1;" vertex="1" parent="1">
          <mxGeometry x="454" y="600" width="120" height="60" as="geometry" />
        </mxCell>
        <mxCell id="zopsyx_U3Knj8r7YK4rU-10" value="" style="endArrow=classic;html=1;rounded=0;exitX=1;exitY=0.5;exitDx=0;exitDy=0;entryX=0;entryY=0.5;entryDx=0;entryDy=0;" edge="1" parent="1" source="zopsyx_U3Knj8r7YK4rU-1" target="zopsyx_U3Knj8r7YK4rU-2">
          <mxGeometry width="50" height="50" relative="1" as="geometry">
            <mxPoint x="390" y="320" as="sourcePoint" />
            <mxPoint x="440" y="270" as="targetPoint" />
          </mxGeometry>
        </mxCell>
        <mxCell id="zopsyx_U3Knj8r7YK4rU-11" value="" style="endArrow=classic;html=1;rounded=0;exitX=1;exitY=0.5;exitDx=0;exitDy=0;entryX=0;entryY=0.5;entryDx=0;entryDy=0;" edge="1" parent="1" source="zopsyx_U3Knj8r7YK4rU-2" target="zopsyx_U3Knj8r7YK4rU-3">
          <mxGeometry width="50" height="50" relative="1" as="geometry">
            <mxPoint x="390" y="320" as="sourcePoint" />
            <mxPoint x="440" y="270" as="targetPoint" />
          </mxGeometry>
        </mxCell>
        <mxCell id="zopsyx_U3Knj8r7YK4rU-12" value="" style="endArrow=classic;html=1;rounded=0;exitX=0.5;exitY=1;exitDx=0;exitDy=0;" edge="1" parent="1" source="zopsyx_U3Knj8r7YK4rU-3" target="zopsyx_U3Knj8r7YK4rU-6">
          <mxGeometry width="50" height="50" relative="1" as="geometry">
            <mxPoint x="390" y="320" as="sourcePoint" />
            <mxPoint x="440" y="270" as="targetPoint" />
          </mxGeometry>
        </mxCell>
        <mxCell id="zopsyx_U3Knj8r7YK4rU-13" value="" style="endArrow=classic;html=1;rounded=0;exitX=0;exitY=0.5;exitDx=0;exitDy=0;" edge="1" parent="1" source="zopsyx_U3Knj8r7YK4rU-6">
          <mxGeometry relative="1" as="geometry">
            <mxPoint x="360" y="300" as="sourcePoint" />
            <mxPoint x="240" y="100" as="targetPoint" />
            <Array as="points">
              <mxPoint x="240" y="250" />
            </Array>
          </mxGeometry>
        </mxCell>
        <mxCell id="zopsyx_U3Knj8r7YK4rU-14" value="Não" style="edgeLabel;resizable=0;html=1;align=center;verticalAlign=middle;" connectable="0" vertex="1" parent="zopsyx_U3Knj8r7YK4rU-13">
          <mxGeometry relative="1" as="geometry" />
        </mxCell>
        <mxCell id="zopsyx_U3Knj8r7YK4rU-16" value="" style="endArrow=classic;html=1;rounded=0;exitX=0.5;exitY=1;exitDx=0;exitDy=0;" edge="1" parent="1" source="zopsyx_U3Knj8r7YK4rU-6" target="zopsyx_U3Knj8r7YK4rU-5">
          <mxGeometry relative="1" as="geometry">
            <mxPoint x="370" y="200" as="sourcePoint" />
            <mxPoint x="470" y="200" as="targetPoint" />
          </mxGeometry>
        </mxCell>
        <mxCell id="zopsyx_U3Knj8r7YK4rU-17" value="Sim" style="edgeLabel;resizable=0;html=1;align=center;verticalAlign=middle;" connectable="0" vertex="1" parent="zopsyx_U3Knj8r7YK4rU-16">
          <mxGeometry relative="1" as="geometry" />
        </mxCell>
        <mxCell id="zopsyx_U3Knj8r7YK4rU-18" value="" style="endArrow=classic;html=1;rounded=0;exitX=0.5;exitY=1;exitDx=0;exitDy=0;entryX=0.5;entryY=0;entryDx=0;entryDy=0;" edge="1" parent="1" source="zopsyx_U3Knj8r7YK4rU-5" target="zopsyx_U3Knj8r7YK4rU-7">
          <mxGeometry width="50" height="50" relative="1" as="geometry">
            <mxPoint x="510" y="510" as="sourcePoint" />
            <mxPoint x="560" y="460" as="targetPoint" />
          </mxGeometry>
        </mxCell>
        <mxCell id="zopsyx_U3Knj8r7YK4rU-19" value="" style="endArrow=classic;html=1;rounded=0;exitX=0.494;exitY=0.863;exitDx=0;exitDy=0;exitPerimeter=0;entryX=0.5;entryY=0;entryDx=0;entryDy=0;" edge="1" parent="1" source="zopsyx_U3Knj8r7YK4rU-7" target="zopsyx_U3Knj8r7YK4rU-8">
          <mxGeometry width="50" height="50" relative="1" as="geometry">
            <mxPoint x="500" y="570" as="sourcePoint" />
            <mxPoint x="550" y="520" as="targetPoint" />
          </mxGeometry>
        </mxCell>
      </root>
    </mxGraphModel>
  </diagram>
</mxfile>
